<?xml version="1.0" encoding="UTF-8" standalone="no"?>
<!-- Created with Inkscape (http://www.inkscape.org/) -->

<svg
   xmlns:osb="http://www.openswatchbook.org/uri/2009/osb"
   xmlns:dc="http://purl.org/dc/elements/1.1/"
   xmlns:cc="http://creativecommons.org/ns#"
   xmlns:rdf="http://www.w3.org/1999/02/22-rdf-syntax-ns#"
   xmlns:svg="http://www.w3.org/2000/svg"
   xmlns="http://www.w3.org/2000/svg"
   xmlns:sodipodi="http://sodipodi.sourceforge.net/DTD/sodipodi-0.dtd"
   xmlns:inkscape="http://www.inkscape.org/namespaces/inkscape"
   width="457.19952"
   height="527.38574"
   id="svg2"
   version="1.1"
   inkscape:version="0.92.2 5c3e80d, 2017-08-06"
   sodipodi:docname="dag_for_hands_on_001.svg">
  <defs
     id="defs4">
    <linearGradient
       id="linearGradient4861"
       osb:paint="solid">
      <stop
         style="stop-color:#ffff00;stop-opacity:1;"
         offset="0"
         id="stop4863" />
    </linearGradient>
    <linearGradient
       id="linearGradient4855"
       osb:paint="solid">
      <stop
         style="stop-color:#ffff00;stop-opacity:1;"
         offset="0"
         id="stop4857" />
    </linearGradient>
    <marker
       inkscape:stockid="Arrow1Mend"
       orient="auto"
       refY="0"
       refX="0"
       id="Arrow1Mend"
       style="overflow:visible">
      <path
         id="path4050"
         d="M 0,0 5,-5 -12.5,0 5,5 0,0 z"
         style="fill-rule:evenodd;stroke:#000000;stroke-width:1pt"
         transform="matrix(-0.4,0,0,-0.4,-4,0)"
         inkscape:connector-curvature="0" />
    </marker>
    <marker
       inkscape:stockid="Arrow1Lend"
       orient="auto"
       refY="0"
       refX="0"
       id="Arrow1Lend"
       style="overflow:visible">
      <path
         id="path4044"
         d="M 0,0 5,-5 -12.5,0 5,5 0,0 z"
         style="fill-rule:evenodd;stroke:#000000;stroke-width:1pt"
         transform="matrix(-0.8,0,0,-0.8,-10,0)"
         inkscape:connector-curvature="0" />
    </marker>
    <marker
       inkscape:stockid="Arrow2Lend"
       orient="auto"
       refY="0"
       refX="0"
       id="Arrow2Lend"
       style="overflow:visible">
      <path
         id="path4062"
         style="fill-rule:evenodd;stroke-width:0.625;stroke-linejoin:round"
         d="M 8.7185878,4.0337352 -2.2072895,0.01601326 8.7185884,-4.0017078 c -1.7454984,2.3720609 -1.7354408,5.6174519 -6e-7,8.035443 z"
         transform="matrix(-1.1,0,0,-1.1,-1.1,0)"
         inkscape:connector-curvature="0" />
    </marker>
    <clipPath
       id="clipPath3814"
       clipPathUnits="userSpaceOnUse">
      <path
         id="path3816"
         d="m 0.365062,1.147219 39.88792,0 0,23 -39.88792,0 0,-23 z"
         inkscape:connector-curvature="0" />
    </clipPath>
    <clipPath
       id="clipPath4921"
       clipPathUnits="userSpaceOnUse">
      <path
         id="path4923"
         d="m 0.768375,0.972 32.75179,0 0,30 -32.75179,0 0,-30 z"
         inkscape:connector-curvature="0" />
    </clipPath>
    <clipPath
       id="clipPath4972"
       clipPathUnits="userSpaceOnUse">
      <path
         id="path4974"
         d="m 0.768375,0.972 32.9914,0 0,30 -32.9914,0 0,-30 z"
         inkscape:connector-curvature="0" />
    </clipPath>
    <clipPath
       id="clipPath5103"
       clipPathUnits="userSpaceOnUse">
      <path
         id="path5105"
         d="m 0.768375,0.5103926 50.9916,0 0,34.9884704 -50.9916,0 0,-34.9884704 z"
         inkscape:connector-curvature="0" />
    </clipPath>
    <clipPath
       id="clipPath5160"
       clipPathUnits="userSpaceOnUse">
      <path
         id="path5162"
         d="m 0.768375,0.5103926 52,0 0,34.9884704 -52,0 0,-34.9884704 z"
         inkscape:connector-curvature="0" />
    </clipPath>
    <clipPath
       id="clipPath5217"
       clipPathUnits="userSpaceOnUse">
      <path
         id="path5219"
         d="m 0.553219,1.104393 189.000001,0 0,32.81361 -189.000001,0 0,-32.81361 z"
         inkscape:connector-curvature="0" />
    </clipPath>
    <clipPath
       id="clipPath5533"
       clipPathUnits="userSpaceOnUse">
      <path
         id="path5535"
         d="m 0.550687,0.9466115 192.995803,0 0,36.8136095 -192.995803,0 0,-36.8136095 z"
         inkscape:connector-curvature="0" />
    </clipPath>
    <clipPath
       id="clipPath956"
       clipPathUnits="userSpaceOnUse">
      <path
         inkscape:connector-curvature="0"
         id="path954"
         d="m 0.271125,0.504 h 32 v 20 h -32 z" />
    </clipPath>
    <clipPath
       id="clipPath1040"
       clipPathUnits="userSpaceOnUse">
      <path
         inkscape:connector-curvature="0"
         id="path1038"
         d="m 0.378,0.306 h 166 v 30 h -166 z" />
    </clipPath>
  </defs>
  <sodipodi:namedview
     id="base"
     pagecolor="#ffffff"
     bordercolor="#666666"
     borderopacity="1.0"
     inkscape:pageopacity="0.0"
     inkscape:pageshadow="2"
     inkscape:zoom="0.7"
     inkscape:cx="52.166324"
     inkscape:cy="151.16782"
     inkscape:document-units="px"
     inkscape:current-layer="layer1"
     showgrid="false"
     showguides="true"
     inkscape:guide-bbox="true"
     inkscape:window-width="1324"
     inkscape:window-height="856"
     inkscape:window-x="32"
     inkscape:window-y="5"
     inkscape:window-maximized="0"
     fit-margin-top="0"
     fit-margin-left="0"
     fit-margin-right="0"
     fit-margin-bottom="0">
    <sodipodi:guide
       orientation="0,1"
       position="152.88061,265.30491"
       id="guide3773"
       inkscape:locked="false" />
  </sodipodi:namedview>
  <metadata
     id="metadata7">
    <rdf:RDF>
      <cc:Work
         rdf:about="">
        <dc:format>image/svg+xml</dc:format>
        <dc:type
           rdf:resource="http://purl.org/dc/dcmitype/StillImage" />
        <dc:title />
      </cc:Work>
    </rdf:RDF>
  </metadata>
  <g
     inkscape:label="Layer 1"
     inkscape:groupmode="layer"
     id="layer1"
     transform="translate(-9.9765297,25.432942)">
    <path
       style="fill:none;stroke:#000000;stroke-width:2.29999995;stroke-linecap:butt;stroke-linejoin:miter;stroke-miterlimit:4;stroke-opacity:1;stroke-dasharray:none;marker-end:url(#Arrow1Mend)"
       d="m 184.83367,0.5242 0,151.42857"
       id="path5310"
       inkscape:connector-curvature="0" />
    <path
       sodipodi:type="arc"
       style="fill:#000000;fill-opacity:1;stroke:#000000;stroke-width:2.20000005;stroke-linecap:butt;stroke-linejoin:miter;stroke-miterlimit:4;stroke-opacity:1;stroke-dasharray:none"
       id="path2985"
       sodipodi:cx="155.71428"
       sodipodi:cy="230.93361"
       sodipodi:rx="22.857143"
       sodipodi:ry="22.857143"
       d="m 178.57142,230.93361 a 22.857143,22.857143 0 0 1 -22.85714,22.85714 22.857143,22.857143 0 0 1 -22.85714,-22.85714 22.857143,22.857143 0 0 1 22.85714,-22.85714 22.857143,22.857143 0 0 1 22.85714,22.85714 z"
       transform="matrix(1,0,0,-1,-40,579.58151)" />
    <path
       sodipodi:type="arc"
       style="fill:#000000;fill-opacity:1;stroke:#000000;stroke-width:2.20000005;stroke-linecap:butt;stroke-linejoin:miter;stroke-miterlimit:4;stroke-opacity:1;stroke-dasharray:none"
       id="path2985-2"
       sodipodi:cx="155.71428"
       sodipodi:cy="230.93361"
       sodipodi:rx="22.857143"
       sodipodi:ry="22.857143"
       d="m 178.57142,230.93361 a 22.857143,22.857143 0 0 1 -22.85714,22.85714 22.857143,22.857143 0 0 1 -22.85714,-22.85714 22.857143,22.857143 0 0 1 22.85714,-22.85714 22.857143,22.857143 0 0 1 22.85714,22.85714 z"
       transform="matrix(1,0,0,-1,78.571435,579.5815)" />
    <g
       id="g3808"
       transform="matrix(1.25,0,0,-1.25,93.683088,548.23979)" />
    <path
       style="fill:none;stroke:#000000;stroke-width:2.4000001;stroke-linecap:butt;stroke-linejoin:miter;stroke-miterlimit:4;stroke-opacity:1;stroke-dasharray:none;marker-mid:none;marker-end:url(#Arrow1Mend)"
       d="M 182.85714,178.07647 125.71429,323.79075"
       id="path3853"
       inkscape:connector-curvature="0" />
    <path
       style="fill:none;stroke:#000000;stroke-width:2.4000001;stroke-linecap:butt;stroke-linejoin:miter;stroke-miterlimit:4;stroke-opacity:1;stroke-dasharray:none;marker-mid:none;marker-end:url(#Arrow1Mend)"
       d="m 191.42857,188.07647 35.71429,137.14286"
       id="path3855"
       inkscape:connector-curvature="0" />
    <path
       sodipodi:type="arc"
       style="fill:#ffffff;fill-opacity:1;fill-rule:evenodd;stroke:#000000;stroke-width:2.20000005;stroke-linecap:butt;stroke-linejoin:miter;stroke-miterlimit:4;stroke-opacity:1;stroke-dasharray:none"
       id="path2985-2-2"
       sodipodi:cx="155.71428"
       sodipodi:cy="230.93361"
       sodipodi:rx="22.857143"
       sodipodi:ry="22.857143"
       d="m 178.57142,230.93361 a 22.857143,22.857143 0 0 1 -22.85714,22.85714 22.857143,22.857143 0 0 1 -22.85714,-22.85714 22.857143,22.857143 0 0 1 22.85714,-22.85714 22.857143,22.857143 0 0 1 22.85714,22.85714 z"
       transform="matrix(1,0,0,-1,28.571435,409.01008)" />
    <rect
       style="fill:none;stroke:#000000;stroke-width:1.85331047;stroke-miterlimit:4;stroke-opacity:1;stroke-dasharray:none"
       id="rect5064"
       width="338.91812"
       height="264.55157"
       x="10.903185"
       y="236.47455" />
    <g
       transform="matrix(1.25,0,0,-1.25,78.072724,427.32407)"
       inkscape:label="yi1"
       id="g5095">
      <g
         id="g5097" />
      <g
         id="g5099">
        <g
           clip-path="url(#clipPath5103)"
           id="g5101">
          <path
             id="path5107"
             style="fill:#000000;fill-opacity:1;fill-rule:nonzero;stroke:none"
             d="m 21.69754,31.26509 0.50593,0.50593 c 1.09175,1.0651 2.26333,2.28998 4.71309,2.47635 0.39939,0.02665 0.71895,0.02665 0.71895,0.66571 0,0.29291 -0.18644,0.45269 -0.47935,0.45269 -0.9319,0 -1.97041,-0.13319 -2.92897,-0.13319 -1.19822,0 -2.44976,0.13319 -3.59475,0.13319 -0.21302,0 -0.69229,0 -0.69229,-0.69236 0,-0.39939 0.3728,-0.42604 0.55917,-0.42604 0.23967,0 1.27811,-0.07989 1.27811,-0.82543 0,-0.6124 -0.82542,-1.54437 -0.95855,-1.73081 L 12.48446,22.10525 8.516975,32.75623 c -0.21302,0.50593 -0.21302,0.58582 -0.21302,0.61247 0,0.87867 1.757395,0.87867 2.130195,0.87867 0.50593,0 0.85208,0 0.85208,0.71895 0,0.39945 -0.42604,0.39945 -0.53258,0.39945 -1.011795,0 -3.5148,-0.13319 -4.526647,-0.13319 -0.90533,0 -3.115411,0.13319 -4.020742,0.13319 -0.213019,0 -0.692317,0 -0.692317,-0.71895 0,-0.39945 0.372788,-0.39945 0.825453,-0.39945 2.156823,0 2.316591,-0.3195 2.63612,-1.22481 L 9.395706,21.19993 c 0.026585,-0.10648 0.133129,-0.50593 0.133129,-0.61241 0,-0.10654 -1.4379,-5.88466 -1.597682,-6.52372 -0.479284,-1.97048 -0.505909,-2.07696 -3.381675,-2.13019 -0.692318,0 -0.985221,0 -0.985221,-0.71895 0,-0.39946 0.426039,-0.39946 0.505923,-0.39946 1.011847,0 3.514825,0.10655 4.526686,0.10655 1.01186,0 3.594684,-0.10655 4.606544,-0.10655 0.23967,0 0.66571,0 0.66571,0.71895 0,0.39946 -0.31956,0.39946 -0.98528,0.39946 -0.07982,0 -0.77218,0 -1.38459,0.07982 -0.7456,0.07989 -0.95862,0.1332 -0.95862,0.55924 0,0.26625 0.31956,1.51772 0.50593,2.26332 l 1.25153,5.08582 c 0.18637,0.66571 0.21302,0.77219 0.50593,1.09175 l 8.89352,10.25153"
             inkscape:connector-curvature="0" />
          <path
             id="path5109"
             style="fill:#000000;fill-opacity:1;fill-rule:nonzero;stroke:none"
             d="m 29.17988,21.19993 c 0,0.39939 -0.29291,0.93197 -0.9852,0.93197 -0.6923,0 -1.41125,-0.63906 -1.41125,-1.35801 0,-0.42604 0.3195,-0.95855 1.01179,-0.95855 0.71895,0 1.38466,0.69229 1.38466,1.38459 z M 24.06741,8.445401 C 23.98752,8.125838 23.85439,7.832927 23.85439,7.406888 c 0,-1.171588 0.98521,-2.130177 2.36987,-2.130177 2.50293,0 3.62134,3.461601 3.62134,3.834334 0,0.319564 -0.31957,0.319564 -0.39946,0.319564 -0.34615,0 -0.3728,-0.159782 -0.47928,-0.42604 -0.58582,-1.997075 -1.6775,-3.035547 -2.66278,-3.035547 -0.50586,0 -0.6124,0.319529 -0.6124,0.878704 0,0.585815 0.15978,1.065092 0.39938,1.597675 0.23968,0.692297 0.50594,1.358009 0.79885,2.023649 0.21302,0.58583 1.11833,2.8758 1.22488,3.16871 0.07989,0.26626 0.15978,0.55917 0.15978,0.79878 0,1.19822 -1.01186,2.13019 -2.39652,2.13019 -2.47635,0 -3.62134,-3.40831 -3.62134,-3.83435 0,-0.3195 0.34622,-0.3195 0.42604,-0.3195 0.34622,0 0.3728,0.13313 0.45269,0.39939 0.63906,2.15685 1.73081,3.06217 2.66278,3.06217 0.39939,0 0.63906,-0.21302 0.63906,-0.87873 0,-0.58576 -0.15978,-0.95856 -0.77225,-2.50293 L 24.06741,8.445401"
             inkscape:connector-curvature="0" />
          <path
             id="path5111"
             style="fill:#000000;fill-opacity:1;fill-rule:nonzero;stroke:none"
             d="m 36.55568,5.91577 c 0,-1.358002 -0.23967,-2.982275 -1.94383,-4.579923 -0.10647,-0.10651 -0.18636,-0.159768 -0.18636,-0.292904 0,-0.1863938 0.21302,-0.3461585 0.34614,-0.3461585 0.34615,0 2.47635,1.9970575 2.47635,4.9793335 0,1.544403 -0.58575,2.74263 -1.73074,2.74263 -0.85208,0 -1.4379,-0.665712 -1.4379,-1.437879 0,-0.798828 0.55917,-1.464512 1.4379,-1.464512 0.6124,0 1.01179,0.399413 1.03844,0.399413"
             inkscape:connector-curvature="0" />
          <path
             id="path5113"
             style="fill:#000000;fill-opacity:1;fill-rule:nonzero;stroke:none"
             d="m 48.16529,21.46619 c 0,0.66571 -0.05331,0.69236 -0.7456,0.69236 -1.59762,-1.57103 -3.8876,-1.59768 -4.92611,-1.59768 l 0,-0.90532 c 0.61247,0 2.26339,0 3.64799,0.71895 l 0,-12.807831 c 0,-0.825453 0,-1.144982 -2.503,-1.144982 l -0.95855,0 0,-0.90533 c 0.45262,0.026625 3.54144,0.106509 4.44676,0.106509 0.79884,0 3.94089,-0.079884 4.50006,-0.106509 l 0,0.90533 -0.95862,0 c -2.50293,0 -2.50293,0.319529 -2.50293,1.144982 l 0,13.899521"
             inkscape:connector-curvature="0" />
        </g>
      </g>
    </g>
    <g
       transform="matrix(1.25,0,0,-1.25,201.57345,427.32407)"
       inkscape:label="yi2"
       id="g5152">
      <g
         id="g5154" />
      <g
         id="g5156">
        <g
           clip-path="url(#clipPath5160)"
           id="g5158">
          <path
             id="path5164"
             style="fill:#000000;fill-opacity:1;fill-rule:nonzero;stroke:none"
             d="m 21.69754,31.26509 0.50593,0.50593 c 1.09175,1.0651 2.26333,2.28998 4.71309,2.47635 0.39939,0.02665 0.71895,0.02665 0.71895,0.66571 0,0.29291 -0.18644,0.45269 -0.47935,0.45269 -0.9319,0 -1.97041,-0.13319 -2.92897,-0.13319 -1.19822,0 -2.44976,0.13319 -3.59475,0.13319 -0.21302,0 -0.69229,0 -0.69229,-0.69236 0,-0.39939 0.3728,-0.42604 0.55917,-0.42604 0.23967,0 1.27811,-0.07989 1.27811,-0.82543 0,-0.6124 -0.82542,-1.54437 -0.95855,-1.73081 L 12.48446,22.10525 8.516975,32.75623 c -0.21302,0.50593 -0.21302,0.58582 -0.21302,0.61247 0,0.87867 1.757395,0.87867 2.130195,0.87867 0.50593,0 0.85208,0 0.85208,0.71895 0,0.39945 -0.42604,0.39945 -0.53258,0.39945 -1.011795,0 -3.5148,-0.13319 -4.526647,-0.13319 -0.90533,0 -3.115411,0.13319 -4.020742,0.13319 -0.213019,0 -0.692317,0 -0.692317,-0.71895 0,-0.39945 0.372788,-0.39945 0.825453,-0.39945 2.156823,0 2.316591,-0.3195 2.63612,-1.22481 L 9.395706,21.19993 c 0.026585,-0.10648 0.133129,-0.50593 0.133129,-0.61241 0,-0.10654 -1.4379,-5.88466 -1.597682,-6.52372 -0.479284,-1.97048 -0.505909,-2.07696 -3.381675,-2.13019 -0.692318,0 -0.985221,0 -0.985221,-0.71895 0,-0.39946 0.426039,-0.39946 0.505923,-0.39946 1.011847,0 3.514825,0.10655 4.526686,0.10655 1.01186,0 3.594684,-0.10655 4.606544,-0.10655 0.23967,0 0.66571,0 0.66571,0.71895 0,0.39946 -0.31956,0.39946 -0.98528,0.39946 -0.07982,0 -0.77218,0 -1.38459,0.07982 -0.7456,0.07989 -0.95862,0.1332 -0.95862,0.55924 0,0.26625 0.31956,1.51772 0.50593,2.26332 l 1.25153,5.08582 c 0.18637,0.66571 0.21302,0.77219 0.50593,1.09175 l 8.89352,10.25153"
             inkscape:connector-curvature="0" />
          <path
             id="path5166"
             style="fill:#000000;fill-opacity:1;fill-rule:nonzero;stroke:none"
             d="m 29.17988,21.19993 c 0,0.39939 -0.29291,0.93197 -0.9852,0.93197 -0.6923,0 -1.41125,-0.63906 -1.41125,-1.35801 0,-0.42604 0.3195,-0.95855 1.01179,-0.95855 0.71895,0 1.38466,0.69229 1.38466,1.38459 z M 24.06741,8.445401 C 23.98752,8.125838 23.85439,7.832927 23.85439,7.406888 c 0,-1.171588 0.98521,-2.130177 2.36987,-2.130177 2.50293,0 3.62134,3.461601 3.62134,3.834334 0,0.319564 -0.31957,0.319564 -0.39946,0.319564 -0.34615,0 -0.3728,-0.159782 -0.47928,-0.42604 -0.58582,-1.997075 -1.6775,-3.035547 -2.66278,-3.035547 -0.50586,0 -0.6124,0.319529 -0.6124,0.878704 0,0.585815 0.15978,1.065092 0.39938,1.597675 0.23968,0.692297 0.50594,1.358009 0.79885,2.023649 0.21302,0.58583 1.11833,2.8758 1.22488,3.16871 0.07989,0.26626 0.15978,0.55917 0.15978,0.79878 0,1.19822 -1.01186,2.13019 -2.39652,2.13019 -2.47635,0 -3.62134,-3.40831 -3.62134,-3.83435 0,-0.3195 0.34622,-0.3195 0.42604,-0.3195 0.34622,0 0.3728,0.13313 0.45269,0.39939 0.63906,2.15685 1.73081,3.06217 2.66278,3.06217 0.39939,0 0.63906,-0.21302 0.63906,-0.87873 0,-0.58576 -0.15978,-0.95856 -0.77225,-2.50293 L 24.06741,8.445401"
             inkscape:connector-curvature="0" />
          <path
             id="path5168"
             style="fill:#000000;fill-opacity:1;fill-rule:nonzero;stroke:none"
             d="m 36.55568,5.91577 c 0,-1.358002 -0.23967,-2.982275 -1.94383,-4.579923 -0.10647,-0.10651 -0.18636,-0.159768 -0.18636,-0.292904 0,-0.1863938 0.21302,-0.3461585 0.34614,-0.3461585 0.34615,0 2.47635,1.9970575 2.47635,4.9793335 0,1.544403 -0.58575,2.74263 -1.73074,2.74263 -0.85208,0 -1.4379,-0.665712 -1.4379,-1.437879 0,-0.798828 0.55917,-1.464512 1.4379,-1.464512 0.6124,0 1.01179,0.399413 1.03844,0.399413"
             inkscape:connector-curvature="0" />
          <path
             id="path5170"
             style="fill:#000000;fill-opacity:1;fill-rule:nonzero;stroke:none"
             d="m 52.42568,10.09625 -0.85208,0 C 51.49371,9.537084 51.25404,8.045947 50.93455,7.806342 50.72153,7.64656 48.80435,7.64656 48.43155,7.64656 l -4.60655,0 c 2.63613,2.343217 3.5148,3.03551 5.00593,4.20716 1.86394,1.49113 3.59475,3.03551 3.59475,5.43196 0,3.03552 -2.66278,4.87287 -5.85807,4.87287 -3.11541,0 -5.21895,-2.1835 -5.21895,-4.47341 0,-1.27812 1.0651,-1.41132 1.33136,-1.41132 0.58582,0 1.33135,0.42604 1.33135,1.33143 0,0.45262 -0.18637,1.33135 -1.49114,1.33135 0.77219,1.78405 2.47635,2.31657 3.67458,2.31657 2.50299,0 3.80777,-1.94376 3.80777,-3.96749 0,-2.18343 -1.57103,-3.91424 -2.36987,-4.81956 L 41.58826,6.501571 C 41.34866,6.288551 41.34866,6.2353 41.34866,5.516357 l 10.33142,0 0.7456,4.579893"
             inkscape:connector-curvature="0" />
        </g>
      </g>
    </g>
    <g
       transform="matrix(1.25,0,0,-1.25,106.16836,500.68526)"
       inkscape:label="ie1n"
       id="g5209">
      <g
         id="g5211" />
      <g
         id="g5213">
        <g
           clip-path="url(#clipPath5217)"
           id="g5215">
          <path
             id="path5221"
             style="fill:#000000;fill-opacity:1;fill-rule:nonzero;stroke:none"
             d="m 10.24565,31.1668 c 0,0.71895 -0.505931,1.27811 -1.331425,1.27811 -0.958555,0 -1.917157,-0.93197 -1.917157,-1.89052 0,-0.69237 0.479325,-1.30477 1.357989,-1.30477 0.825493,0 1.890593,0.82542 1.890593,1.91718 z M 7.529631,17.66666 c 0.426039,1.03852 0.426039,1.11834 0.772188,2.07696 0.29291,0.71895 0.479277,1.22488 0.479277,1.91718 0,1.59761 -1.144989,2.92904 -2.955636,2.92904 -3.355064,0 -4.739692,-5.19237 -4.739692,-5.53851 0,-0.34615 0.372788,-0.34615 0.42604,-0.34615 0.372787,0 0.399413,0.07982 0.585807,0.63906 0.985215,3.38166 2.396468,4.44676 3.621335,4.44676 0.292897,0 0.90533,0 0.90533,-1.14499 0,-0.74554 -0.239645,-1.49114 -0.399414,-1.86394 C 5.93197,19.8501 4.334322,15.69625 3.748514,14.15187 3.402359,13.2199 2.923061,12.02168 2.923061,11.27607 c 0,-1.704154 1.224867,-2.955619 2.95565,-2.955619 3.355077,0 4.686429,5.218949 4.686429,5.538509 0,0.34615 -0.31949,0.34615 -0.42604,0.34615 -0.346144,0 -0.346144,-0.10654 -0.53251,-0.63906 C 8.967531,11.30273 7.769235,9.119292 5.93197,9.119292 c -0.585808,0 -0.852079,0.346149 -0.852079,1.171578 0,0.90531 0.213019,1.41124 1.038466,3.59468 l 1.411274,3.78111"
             inkscape:connector-curvature="0" />
          <path
             id="path5223"
             style="fill:#000000;fill-opacity:1;fill-rule:nonzero;stroke:none"
             d="m 47.01816,20.46257 c 0.55917,0 1.22482,0 1.22482,0.71895 0,0.71895 -0.66565,0.71895 -1.17158,0.71895 l -21.51499,0 c -0.50593,0 -1.19822,0 -1.19822,-0.71895 0,-0.71895 0.69229,-0.71895 1.22488,-0.71895 l 21.43509,0 z m 0.05324,-6.97641 c 0.50593,0 1.17158,0 1.17158,0.71895 0,0.71895 -0.66565,0.71895 -1.22482,0.71895 l -21.43509,0 c -0.53259,0 -1.22488,0 -1.22488,-0.71895 0,-0.71895 0.69229,-0.71895 1.19822,-0.71895 l 21.51499,0"
             inkscape:connector-curvature="0" />
          <path
             id="path5225"
             style="fill:#000000;fill-opacity:1;fill-rule:nonzero;stroke:none"
             d="m 70.82313,31.69938 c 0,0.87866 0,0.9319 -0.82549,0.9319 -2.23668,-2.28991 -5.40539,-2.28991 -6.55038,-2.28991 l 0,-1.1184 c 0.71895,0 2.84915,0 4.71309,0.93197 l 0,-18.61261 c 0,-1.27812 -0.10654,-1.704156 -3.35508,-1.704156 l -1.14499,0 0,-1.118336 c 1.25154,0.106543 4.39353,0.106543 5.83156,0.106543 1.43763,0 4.55351,0 5.80436,-0.106543 l 0,1.118336 -1.14451,0 c -3.22222,0 -3.32856,0.399456 -3.32856,1.704156 l 0,20.15705"
             inkscape:connector-curvature="0" />
          <path
             id="path5227"
             style="fill:#000000;fill-opacity:1;fill-rule:nonzero;stroke:none"
             d="m 85.44139,8.746491 c 0,2.369799 -0.90524,3.781119 -2.2897,3.781119 -1.19837,0 -1.91752,-0.90539 -1.91752,-1.91718 0,-0.958623 0.71915,-1.890592 1.91752,-1.890592 0.42604,0 0.90525,0.133128 1.25153,0.452692 0.10634,0.079891 0.13293,0.133129 0.1861,0.133129 0.02658,0 0.05317,-0.053238 0.05317,-0.559168 0,-2.66276 -1.25154,-4.792957 -2.42264,-5.991198 C 81.8204,2.355886 81.8204,2.302628 81.8204,2.169492 c 0,-0.239645 0.18609,-0.372788 0.34629,-0.372788 0.39945,0 3.2747,2.742631 3.2747,6.949787"
             inkscape:connector-curvature="0" />
          <path
             id="path5229"
             style="fill:#000000;fill-opacity:1;fill-rule:nonzero;stroke:none"
             d="m 101.0453,10.61043 c 0,1.0651 -0.852,1.91718 -1.89089,1.91718 -1.03817,0 -1.91684,-0.85208 -1.91684,-1.91718 0,-1.038514 0.87867,-1.890592 1.91684,-1.890592 1.03889,0 1.89089,0.852078 1.89089,1.890592"
             inkscape:connector-curvature="0" />
          <path
             id="path5231"
             style="fill:#000000;fill-opacity:1;fill-rule:nonzero;stroke:none"
             d="m 116.9417,10.61043 c 0,1.0651 -0.8521,1.91718 -1.8902,1.91718 -1.0389,0 -1.9175,-0.85208 -1.9175,-1.91718 0,-1.038514 0.8786,-1.890592 1.9175,-1.890592 1.0381,0 1.8902,0.852078 1.8902,1.890592"
             inkscape:connector-curvature="0" />
          <path
             id="path5233"
             style="fill:#000000;fill-opacity:1;fill-rule:nonzero;stroke:none"
             d="m 132.8388,10.61043 c 0,1.0651 -0.8521,1.91718 -1.8909,1.91718 -1.0382,0 -1.9169,-0.85208 -1.9169,-1.91718 0,-1.038514 0.8787,-1.890592 1.9169,-1.890592 1.0388,0 1.8909,0.852078 1.8909,1.890592"
             inkscape:connector-curvature="0" />
          <path
             id="path5235"
             style="fill:#000000;fill-opacity:1;fill-rule:nonzero;stroke:none"
             d="m 149.241,8.746491 c 0,2.369799 -0.9053,3.781119 -2.2897,3.781119 -1.1984,0 -1.9176,-0.90539 -1.9176,-1.91718 0,-0.958623 0.7192,-1.890592 1.9176,-1.890592 0.426,0 0.9052,0.133128 1.2515,0.452692 0.1063,0.079891 0.1329,0.133129 0.1861,0.133129 0.0266,0 0.0532,-0.053238 0.0532,-0.559168 0,-2.66276 -1.2516,-4.792957 -2.4234,-5.991198 C 145.62,2.355886 145.62,2.302628 145.62,2.169492 c 0,-0.239645 0.1861,-0.372788 0.3456,-0.372788 0.3994,0 3.2754,2.742631 3.2754,6.949787"
             inkscape:connector-curvature="0" />
          <path
             id="path5237"
             style="fill:#000000;fill-opacity:1;fill-rule:nonzero;stroke:none"
             d="m 185.0017,29.46264 c 0.3729,1.4379 1.0116,2.55623 3.8875,2.66278 0.1595,0 0.6128,0.05324 0.6128,0.71888 0,0.05331 0,0.39945 -0.4799,0.39945 -1.1711,0 -2.4492,-0.10654 -3.621,-0.10654 -1.2249,0 -2.4764,0.10654 -3.6748,0.10654 -0.2127,0 -0.6387,0 -0.6387,-0.71895 0,-0.39938 0.3728,-0.39938 0.6387,-0.39938 2.0504,-0.02665 2.4499,-0.77226 2.4499,-1.57103 0,-0.10654 -0.0798,-0.63906 -0.1063,-0.7456 l -4.0212,-16.00306 -7.9345,18.77231 c -0.2932,0.63906 -0.3197,0.66571 -1.1452,0.66571 l -4.8194,0 c -0.7191,0 -1.0388,0 -1.0388,-0.71895 0,-0.39938 0.3197,-0.39938 1.0122,-0.39938 0.1595,0 2.4227,0 2.4227,-0.31957 l -4.7928,-19.27824 c -0.3729,-1.4379 -0.985,-2.582892 -3.8875,-2.689436 -0.2134,0 -0.6122,-0.053238 -0.6122,-0.718882 0,-0.266326 0.1861,-0.399454 0.4792,-0.399454 1.1445,0 2.3961,0.106543 3.5679,0.106543 1.2249,0 2.5296,-0.106543 3.7014,-0.106543 0.1861,0 0.6653,0 0.6653,0.718949 0,0.346149 -0.3463,0.399387 -0.7185,0.399387 -2.1036,0.053306 -2.3701,0.852076 -2.3701,1.571026 0,0.26633 0.0266,0.42604 0.1329,0.8255 l 4.7396,18.95875 c 0.1336,-0.21302 0.1336,-0.29291 0.3197,-0.63906 l 8.9468,-21.142256 c 0.24,-0.612406 0.3729,-0.692296 0.6926,-0.692296 0.3995,0 0.3995,0.106543 0.559,0.745603 l 5.0327,19.997199"
             inkscape:connector-curvature="0" />
        </g>
      </g>
    </g>
    <path
       sodipodi:type="arc"
       style="fill:#c8c8c8;fill-opacity:1;fill-rule:evenodd;stroke:#060606;stroke-width:2.20000005;stroke-linecap:butt;stroke-linejoin:miter;stroke-miterlimit:4;stroke-opacity:0.98260869;stroke-dasharray:none"
       id="path2985-2-2-4"
       sodipodi:cx="155.71428"
       sodipodi:cy="230.93361"
       sodipodi:rx="22.857143"
       sodipodi:ry="22.857143"
       d="m 178.57142,230.93361 a 22.857143,22.857143 0 0 1 -22.85714,22.85714 22.857143,22.857143 0 0 1 -22.85714,-22.85714 22.857143,22.857143 0 0 1 22.85714,-22.85714 22.857143,22.857143 0 0 1 22.85714,22.85714 z"
       transform="matrix(1,0,0,-1,29.119393,229.45781)" />
    <g
       transform="matrix(1.9757107,0,0,-1.8582667,208.2953,157.33038)"
       inkscape:label="untitled"
       id="g940">
      <g
         id="g942" />
      <g
         id="g944">
        <g
           transform="matrix(1e-6,0,0,1e-6,16,10)"
           id="g946">
          <path
             inkscape:connector-curvature="0"
             id="path948"
             style="fill:none;stroke:#000000;stroke-width:1;stroke-linecap:butt;stroke-linejoin:miter;stroke-miterlimit:10;stroke-dasharray:none;stroke-opacity:0"
             d="m 0,0 c 60,108 97,116 101,120 4,-4 -69,-5 3,-23 -55,-2 -6,0 11,4 -61,-49 -54,-67 0,-2 -12,-14 -2,9 3,-17 -21,34 -31,32 -62,29 52,-57 57,-14 -6,4 C 100,49 69,47 52,104 89,61 34,62 65,65 65,66 54,51 105,99 98,86 66,78 83,56 78,65 69,74 51,85 114,49 113,47 113,104 54,57 76,66 98,66 c -13,-18 11,9 15,11 -12,28 -43,-25 -57,9 -13,17 30,30 19,-12 43,42 41,-4 -25,-20 67,65 59,1 21,0 0,15 -24,49 14,64 -13,-14 -1,2 -31,-14 -7,17 -1,10 2,16 41,-32 24,-39 -7,-17 50,-35 57,-56 51,6 9,-35 7,-21 -18,-36 -9,25 -28,-18 32,29 -30,7 -44,4 -15,-52 17,5 13,5 5,48 -54,18 11,-51 -25,-30 40,45 -7,-15 -36,-20 41,34 61,66 61,57 -56,-18 1,3 -38,-54 -1,-1 46,30 33,22 -14,43 22,-19 -48,-8 47,48 32,17 70,42 -55,-4 -47,-54 -15,-6 -16,-50 -51,9 -39,-3 21,6 44,-11 47,-1 -27,-8 -31,-54 -2,-26 -32,-1 -30,-18 8,11 -11,-34 -10,0 -9,-12 -4,27 -3,-3 5,47 -67,-31 -66,-52 -2,-51 -37,52 -40,54 -26,7 -40,9 17,12 30,-26 -4,21 -11,30 -33,36 23,4 2,-16 -14,33 9,6 -20,-39 35,-62 -39,46 -19,33 -29,-2 -5,70 8,54 -21,-2 15,20 13,0 56,37 -32,28 0,-1 -30,-5 23,17 8,-2 -12,32 32,-35 51,-29 17,-1 -19,-36 20,-2 -38,-42 58,41 34,49 49,42 -43,-61 11,-44 -15,-4 -5,0 -6,-2 20,-54 -29,43 -18,29 12,-12 -3,65 -63,67 -58,58 19,-46 40,5 30,21 -40,-18 -12,-11 24,-6 -36,-2 -21,-17 -33,-43 33,-3 37,10 -6,1 0,31 28,-6 42,38 -44,-22 -37,-27 1,-38 -25,16 -2,36 1,46 -43,-70 -5,-30 -5,1 -2,-65 -14,-37 -7,-20 -37,15 14,13 16,-22 C 50,114 87,113 100,49 50,116 80,86 53,86 54,110 100,53 72,69 85,52 103,51 79,52 66,65 57,117 111,65 52,80 48,73 65,87 77,74 106,65 77,55 c 45,12 32,66 2,45 -9,-57 23,0 -36,-14 62,-36 27,26 77,-30 -67,48 -36,-13 -1,24 -9,-24 -54,7 0,-6 -13,26 -30,-13 -59,-27 48,50 56,54 60,58 C 116,62 0,0 0,0 Z" />
        </g>
      </g>
      <g
         id="g950">
        <g
           clip-path="url(#clipPath956)"
           id="g952">
          <g
             transform="matrix(0.1,0,0,0.1,0.271125,0.504)"
             id="g958">
            <path
               inkscape:connector-curvature="0"
               id="path960"
               style="fill:none;stroke:#000000;stroke-width:0.00001;stroke-linecap:butt;stroke-linejoin:miter;stroke-miterlimit:10;stroke-dasharray:none;stroke-opacity:0"
               d="M 160,100 Z" />
          </g>
          <path
             inkscape:connector-curvature="0"
             id="path962"
             style="fill:#000000;fill-opacity:1;fill-rule:nonzero;stroke:none"
             d="M 2.763315,3.14931 C 2.533625,2.13056 2.477375,1.92119 1.213313,1.92119 c -0.345313,0 -0.660938,0 -0.660938,-0.568752 0,-0.239063 0.14375,-0.359375 0.373438,-0.359375 0.775002,0 1.607812,0.089062 2.412502,0.089062 0.94844,0 1.925,-0.089062 2.84531,-0.089062 0.14375,0 0.51719,0 0.51719,0.598437 0,0.32969 -0.2875,0.32969 -0.69063,0.32969 -1.43593,0 -1.43593,0.20937 -1.43593,0.47969 0,0.35937 1.20625,5.24218 1.40781,5.99062 0.37344,-0.86875 1.17812,-1.91719 2.64375,-1.91719 3.332805,0 6.923405,4.37349 6.923405,8.77659 0,2.8156 -1.6375,4.7922 -3.8203,4.7922 -1.4375,0 -2.815605,-1.0782 -3.764045,-2.2453 -0.2875,1.6171 -1.52344,2.2453 -2.58594,2.2453 -1.32187,0 -1.86718,-1.1672 -2.12656,-1.7063 -0.51719,-1.0187 -0.89062,-2.8156 -0.89062,-2.9062 0,-0.3 0.2875,-0.3 0.34531,-0.3 0.2875,0 0.31562,0.0312 0.4875,0.689 0.48906,2.1266 1.06406,3.5657 2.09844,3.5657 0.4875,0 0.89062,-0.2407 0.89062,-1.3782 0,-0.689 -0.0875,-1.0187 -0.20156,-1.5281 z m 5.05781,12.99999 c 0.2,0.8094 0.97656,1.6485 1.49375,2.0969 1.006245,0.9281 1.839045,1.1391 2.326545,1.1391 1.15,0 1.8391,-1.0485 1.8391,-2.8157 0,-1.7672 -0.9485,-5.2125 -1.4656,-6.35154 -0.9766,-2.09531 -2.354735,-3.08437 -3.418795,-3.08437 -1.89531,0 -2.26875,2.48594 -2.26875,2.66562 0,0.05938 0,0.12032 0.08594,0.47969 l 1.40781,5.8703" />
          <path
             inkscape:connector-curvature="0"
             id="path964"
             style="fill:#000000;fill-opacity:1;fill-rule:nonzero;stroke:none"
             d="m 25.60082,14.9712 c 0.1406,0.6062 0.1797,0.6703 0.6203,0.7109 0.1,0.0219 0.8016,0.0219 1.2016,0.0219 1.2218,0 1.7422,0 2.2422,-0.1672 0.9015,-0.2937 0.9406,-0.9015 0.9406,-1.6547 0,-0.3343 0,-0.6062 -0.1391,-1.6953 l -0.0406,-0.2312 c 0,-0.2094 0.1406,-0.3141 0.3406,-0.3141 0.3,0 0.3406,0.1891 0.3797,0.5234 l 0.5406,4 c 0,0.2922 -0.2406,0.2922 -0.6,0.2922 h -12.3125 c -0.5,0 -0.5406,0 -0.6812,-0.439 l -1.261,-3.7063 c -0.0203,-0.0828 -0.1,-0.2719 -0.1,-0.3765 0,-0.0844 0.0407,-0.2938 0.3407,-0.2938 0.2593,0 0.3,0.1047 0.4203,0.5031 1.1609,3.35 1.8219,3.5594 4.864,3.5594 h 0.8422 c 0.6,0 0.6203,-0.0219 0.6203,-0.2094 0,-0.0218 0,-0.1265 -0.0812,-0.4406 L 21.09612,4.0415 c -0.1797,-0.775 -0.2406,-0.98437 -2.3422,-0.98437 -0.7203,0 -0.9015,0 -0.9015,-0.45938 0,-0.06406 0.0406,-0.29375 0.3406,-0.29375 0.5609,0 1.1609,0.0625 1.7219,0.0625 0.5609,0 1.1609,0.02188 1.7218,0.02188 0.561,0 1.2422,0 1.8016,-0.02188 0.5406,-0.02031 1.1422,-0.0625 1.6828,-0.0625 0.1594,0 0.4594,0 0.4594,0.46094 0,0.29219 -0.2,0.29219 -0.8203,0.29219 -0.3797,0 -0.7813,0.02187 -1.161,0.04218 -0.6812,0.0625 -0.7203,0.14688 -0.7203,0.39844 0,0.14688 0,0.1875 0.0797,0.48125 l 2.6422,10.9922" />
        </g>
      </g>
    </g>
    <g
       transform="matrix(1.3333333,0,0,-1.3333333,220.82227,25.00546)"
       inkscape:label="untitled"
       id="g1024">
      <g
         id="g1026" />
      <g
         id="g1028">
        <g
           transform="matrix(1e-6,0,0,1e-6,83,15)"
           id="g1030">
          <path
             inkscape:connector-curvature="0"
             id="path1032"
             style="fill:none;stroke:#000000;stroke-width:1;stroke-linecap:butt;stroke-linejoin:miter;stroke-miterlimit:10;stroke-dasharray:none;stroke-opacity:0"
             d="m 0,0 c 60,108 97,116 101,120 4,-4 -69,-5 3,-23 -55,-2 -6,0 11,4 C 54,52 61,34 104,102 70,98 79,118 51,49 c 59,31 70,51 17,64 8,-34 -16,-2 42,-8 C 77,76 75,71 75,90 73,61 34,62 65,65 c 0,2 5,7 40,34 -7,-9 -39,-21 -22,-43 -5,9 -14,17 6,-5 -32,46 29,36 25,3 -10,18 -38,-2 2,16 -3,-3 -13,38 -41,27 -1,4 29,-26 -2,21 -1,-13 45,-70 -6,-65 44,28 11,59 49,63 1,-65 -33,6 -49,-18 48,0 44,-9 17,-55 -17,24 -37,0 -14,40 -14,18 0,-3 2,30 47,-23 46,-66 48,-6 -70,-9 -17,-52 -31,-28 -13,1 29,40 33,24 -3,19 -66,-56 -11,17 0,-71 -37,-30 -62,-6 51,-32 38,-44 59,-14 -21,-43 -52,11 -10,12 -1,-62 18,-2 2,-62 -43,6 22,7 3,2 -49,25 -34,59 -33,22 1,-26 29,41 -1,32 -21,-4 14,-7 4,5 1,-61 -24,-41 -3,-28 9,-26 17,-17 -5,2 -22,26 55,-37 -18,3 22,18 74,-37 52,14 6,-28 -34,-54 -47,3 -4,-56 53,-16 55,-7 4,7 -36,12 -42,-46 48,30 -17,60 9,58 36,-4 34,-67 46,-45 -47,-12 -53,37 -33,23 -8,23 19,-18 -14,34 10,-52 5,-67 -8,-1 17,-67 -8,-72 3,-11 10,3 42,-36 21,-54 26,-6 31,30 25,30 C 110,65 90,98 66,122 75,73 77,56 109,112 55,53 53,81 81,82 c 3,25 -5,-15 -11,5 20,-14 51,27 -17,29 67,-17 59,-38 54,-30 -42,-1 -30,36 -34,30 6,-27 34,-9 4,-17 -3,7 1,-32 5,-42 24,25 39,13 0,19 32,36 -27,-1 21,36 C 80,78 70,75 65,65 c 36,17 -17,8 -9,49 23,-44 22,-67 44,-60 -19,57 8,24 10,47 7,5 -36,-32 -13,4 -16,-17 2,-52 13,-53 -22,2 -56,50 3,25 -42,-28 -4,-28 -40,24 1,-49 39,18 7,-35 -24,-18 3,0 24,19 -35,14 15,14 -1,18 -34,-17 -37,-36 12,-53 -67,39 -48,69 -4,22 1,16 -6,-3 -11,1 -27,2 21,-25 6,-20 1,21 -49,64 -30,21 45,-17 -9,38 10,27 -35,-25 11,16 -35,-58 60,65 70,4 71,58 -74,10 -19,4 -44,18 -10,-52 36,-54 -12,-11 35,-5 2,9 -13,-43 16,-10 28,1 13,46 -19,-8 5,-13 55,-44 -43,-24 -41,7 -20,1 -29,33 5,21 -44,-15 40,46 15,20 44,66 -46,-53 9,3 -36,-76 37,76 0,44 22,69 -37,-37 -27,-65 21,-15 8,4 12,8 8,-35 z" />
        </g>
      </g>
      <g
         id="g1034">
        <g
           clip-path="url(#clipPath1040)"
           id="g1036">
          <g
             transform="matrix(0.1,0,0,0.1,0.378,0.306)"
             id="g1042">
            <path
               inkscape:connector-curvature="0"
               id="path1044"
               style="fill:none;stroke:#000000;stroke-width:0.00001;stroke-linecap:butt;stroke-linejoin:miter;stroke-miterlimit:10;stroke-dasharray:none;stroke-opacity:0"
               d="M 830,150 Z" />
          </g>
          <path
             inkscape:connector-curvature="0"
             id="path1046"
             style="fill:#000000;fill-opacity:1;fill-rule:nonzero;stroke:none"
             d="m 16.2577,12.6685 c 2.7,3.1359 3.3328,6.4172 3.3328,6.5031 0,0.4078 -0.4312,0.4078 -0.6906,0.4078 -0.5453,0 -0.5735,-0.0593 -0.7172,-0.6109 -0.5469,-1.9453 -1.4078,-3.5422 -2.0406,-4.4422 -0.0282,1.3938 -0.0578,3.1078 -1.6094,4.675 -1.4938,1.5391 -3.3609,1.8297 -4.71095,1.8297 -5.86094,0 -9.021875,-4.5875 -9.021875,-8.3344 0,-3.19372 2.356255,-5.02341 5.946875,-5.02341 2.75781,0 5.11405,1.19062 6.63755,2.29375 0.5171,-1.21875 1.6953,-2.29375 3.4468,-2.29375 1.8969,0 2.8735,1.33594 2.8735,1.94531 0,0.40781 -0.4016,0.40781 -0.661,0.40781 -0.3734,0 -0.5172,0 -0.6609,-0.37812 C 18.0389,8.806 17.0905,8.7185 17.0327,8.7185 c -0.7188,0 -0.775,3.3688 -0.775,3.95 z m -9.3672,-3.95 c -1.60937,0 -2.7875,0.78438 -2.7875,2.7016 0,0.9578 0.66094,4.1812 1.52344,5.8656 0.91875,1.8578 2.70156,2.7 4.16562,2.7 2.67184,0 2.98904,-3.1938 3.10314,-6.0406 0.0297,-0.725 0.1437,-2.0032 0.1437,-2.7 0,-0.3485 -1.7531,-1.3641 -2.4703,-1.68441 C 8.84519,8.806 7.57956,8.7185 6.8905,8.7185" />
          <path
             inkscape:connector-curvature="0"
             id="path1048"
             style="fill:#000000;fill-opacity:1;fill-rule:nonzero;stroke:none"
             d="m 49.0171,17.4013 c 0.4297,0 0.9765,0 0.9765,0.5813 0,0.5797 -0.5468,0.5797 -0.9484,0.5797 H 31.8358 c -0.4031,0 -0.9484,0 -0.9484,-0.5797 0,-0.5813 0.5453,-0.5813 0.9765,-0.5813 z m 0.0281,-5.6328 c 0.4016,0 0.9484,0 0.9484,0.5797 0,0.5812 -0.5468,0.5812 -0.9765,0.5812 H 31.8639 c -0.4312,0 -0.9765,0 -0.9765,-0.5812 0,-0.5797 0.5453,-0.5797 0.9484,-0.5797 h 17.2094" />
          <path
             inkscape:connector-curvature="0"
             id="path1050"
             style="fill:#000000;fill-opacity:1;fill-rule:nonzero;stroke:none"
             d="m 69.1874,0.93725 c 0,0.0875 0,0.145313 -0.4875,0.63906 -3.5922,3.65782 -4.511,9.14689 -4.511,13.58909 0,5.0515 1.0922,10.1047 4.625,13.7344 0.3735,0.3484 0.3735,0.4062 0.3735,0.4937 0,0.2031 -0.1141,0.2906 -0.286,0.2906 -0.2875,0 -2.8734,-1.975 -4.5687,-5.6625 -1.4656,-3.1937 -1.8109,-6.4172 -1.8109,-8.8562 0,-2.2656 0.3171,-5.77815 1.8968,-9.0594 1.7235,-3.57187 4.1953,-5.459375 4.4828,-5.459375 0.1719,0 0.286,0.0875 0.286,0.290625" />
          <path
             inkscape:connector-curvature="0"
             id="path1052"
             style="fill:#000000;fill-opacity:1;fill-rule:nonzero;stroke:none"
             d="m 84.5827,14.7591 c 0,4.5578 -2.6719,5.9813 -4.7984,5.9813 -3.936,0 -7.7282,-4.1516 -7.7282,-8.2469 0,-2.7 1.7235,-4.90625 4.6547,-4.90625 1.8094,0 3.8781,0.66719 6.0625,2.43906 0.3735,-1.53906 1.3219,-2.43906 2.6141,-2.43906 1.5234,0 2.414,1.59688 2.414,2.06094 0,0.20312 -0.1734,0.29062 -0.3453,0.29062 -0.2015,0 -0.2875,-0.0875 -0.3734,-0.29062 -0.5172,-1.42344 -1.5516,-1.42344 -1.6094,-1.42344 -0.8906,0 -0.8906,2.26565 -0.8906,2.96255 0,0.6093 0,0.6671 0.2875,1.0156 2.7,3.4265 3.3047,6.7953 3.3047,6.825 0,0.0578 -0.0297,0.289 -0.3453,0.289 -0.2875,0 -0.2875,-0.0859 -0.4313,-0.6093 -0.5172,-1.8297 -1.4656,-4.036 -2.8156,-5.7485 z M 82.6577,10.781 C 80.1296,8.54506 77.9171,8.22475 76.7686,8.22475 c -1.725,0 -2.5859,1.30781 -2.5859,3.16565 0,1.4234 0.7469,4.5594 1.6656,6.039 1.35,2.1204 2.9016,2.6719 3.9078,2.6719 2.8438,0 2.8438,-3.8031 2.8438,-6.0687 0,-1.0735 0,-2.7578 0.0578,-3.2516" />
          <path
             inkscape:connector-curvature="0"
             id="path1054"
             style="fill:#000000;fill-opacity:1;fill-rule:nonzero;stroke:none"
             d="m 99.0827,15.8029 c 0.1406,0.589 0.1812,0.65 0.625,0.6906 0.1,0.0203 0.8063,0.0203 1.2113,0.0203 1.229,0 1.754,0 2.259,-0.1625 0.908,-0.2844 0.947,-0.8734 0.947,-1.6047 0,-0.325 0,-0.5906 -0.141,-1.6468 l -0.04,-0.2235 c 0,-0.2031 0.142,-0.3047 0.343,-0.3047 0.302,0 0.343,0.1828 0.383,0.5078 l 0.546,3.8829 c 0,0.2843 -0.243,0.2843 -0.607,0.2843 H 92.203 c -0.5047,0 -0.5453,0 -0.6859,-0.4265 l -1.2703,-3.5985 c -0.0204,-0.0812 -0.1016,-0.264 -0.1016,-0.3656 0,-0.0812 0.0406,-0.2844 0.3437,-0.2844 0.261,0 0.3016,0.1016 0.4235,0.4875 1.1703,3.2516 1.8359,3.4547 4.9015,3.4547 h 0.8469 c 0.6063,0 0.6266,-0.0203 0.6266,-0.2031 0,-0.0203 0,-0.1219 -0.0813,-0.4266 L 94.5436,5.1935 C 94.3624,4.44038 94.3014,4.23725 92.1827,4.23725 c -0.7266,0 -0.9078,0 -0.9078,-0.44687 0,-0.06094 0.0406,-0.28438 0.3437,-0.28438 0.5641,0 1.1688,0.06094 1.7344,0.06094 0.5641,0 1.1703,0.02031 1.7344,0.02031 0.5656,0 1.2515,0 1.8156,-0.02031 0.5453,-0.02031 1.15,-0.06094 1.6953,-0.06094 0.161,0 0.4641,0 0.4641,0.44688 0,0.28437 -0.2016,0.28437 -0.8281,0.28437 -0.3829,0 -0.786,0.02031 -1.1688,0.04063 -0.6859,0.06093 -0.7266,0.14218 -0.7266,0.38593 0,0.14375 0,0.18438 0.0797,0.46875 l 2.6641,10.67034" />
          <path
             inkscape:connector-curvature="0"
             id="path1056"
             style="fill:#000000;fill-opacity:1;fill-rule:nonzero;stroke:none"
             d="m 113.211,7.93569 c 0,1.91562 -0.719,3.04841 -1.839,3.04841 -0.949,0 -1.524,-0.72654 -1.524,-1.53904 0,-0.78437 0.575,-1.53906 1.524,-1.53906 0.345,0 0.719,0.11563 1.006,0.37813 0.086,0.05781 0.114,0.08593 0.142,0.08593 0.03,0 0.058,-0.02812 0.058,-0.43437 0,-2.15 -1.005,-3.89219 -1.953,-4.85 -0.316,-0.31875 -0.316,-0.37656 -0.316,-0.46406 0,-0.20313 0.144,-0.32032 0.286,-0.32032 0.317,0 2.616,2.23594 2.616,5.63438" />
          <path
             inkscape:connector-curvature="0"
             id="path1058"
             style="fill:#000000;fill-opacity:1;fill-rule:nonzero;stroke:none"
             d="m 133.883,14.7591 c 0,4.5578 -2.672,5.9813 -4.799,5.9813 -3.936,0 -7.728,-4.1516 -7.728,-8.2469 0,-2.7 1.724,-4.90625 4.655,-4.90625 1.809,0 3.878,0.66719 6.062,2.43906 0.374,-1.53906 1.322,-2.43906 2.614,-2.43906 1.524,0 2.414,1.59688 2.414,2.06094 0,0.20312 -0.173,0.29062 -0.345,0.29062 -0.201,0 -0.287,-0.0875 -0.373,-0.29062 -0.517,-1.42344 -1.552,-1.42344 -1.61,-1.42344 -0.89,0 -0.89,2.26565 -0.89,2.96255 0,0.6093 0,0.6671 0.287,1.0156 2.7,3.4265 3.305,6.7953 3.305,6.825 0,0.0578 -0.03,0.289 -0.345,0.289 -0.288,0 -0.288,-0.0859 -0.432,-0.6093 -0.517,-1.8297 -1.465,-4.036 -2.815,-5.7485 z m -1.925,-3.9781 c -2.528,-2.23594 -4.741,-2.55625 -5.889,-2.55625 -1.725,0 -2.586,1.30781 -2.586,3.16565 0,1.4234 0.747,4.5594 1.665,6.039 1.35,2.1204 2.902,2.6719 3.908,2.6719 2.844,0 2.844,-3.8031 2.844,-6.0687 0,-1.0735 0,-2.7578 0.058,-3.2516" />
          <path
             inkscape:connector-curvature="0"
             id="path1060"
             style="fill:#000000;fill-opacity:1;fill-rule:nonzero;stroke:none"
             d="m 155.584,17.531 c 0,0.1016 -0.061,0.2641 -0.262,0.2641 -0.141,0 -0.181,-0.0407 -0.363,-0.2438 l -1.473,-1.5656 c -0.181,0.2437 -1.311,1.8094 -3.792,1.8094 -4.902,0 -9.703,-4.3703 -9.703,-8.9641 0,-3.3125 2.581,-5.73125 6.192,-5.73125 1.09,0 3.026,0.22344 5.104,1.99219 1.594,1.36094 2.038,3.12969 2.038,3.29219 0,0.26406 -0.242,0.26406 -0.344,0.26406 -0.262,0 -0.301,-0.10156 -0.362,-0.325 -0.827,-2.78438 -3.652,-4.49219 -6.093,-4.49219 -2.139,0 -4.518,1.15938 -4.518,4.37031 0,0.58907 0.14,3.80159 2.461,6.36249 1.392,1.5641 3.509,2.5 5.426,2.5 2.341,0 3.713,-1.7078 3.713,-3.9844 0,-0.5687 -0.061,-0.7109 -0.061,-0.8328 0,-0.264 0.262,-0.264 0.362,-0.264 0.324,0 0.324,0.0609 0.424,0.4468 l 1.251,5.1016" />
          <path
             inkscape:connector-curvature="0"
             id="path1062"
             style="fill:#000000;fill-opacity:1;fill-rule:nonzero;stroke:none"
             d="m 166.181,15.1654 c 0,2.264 -0.315,5.7781 -1.895,9.0594 -1.725,3.5718 -4.195,5.4593 -4.483,5.4593 -0.172,0 -0.287,-0.1172 -0.287,-0.2906 0,-0.0875 0,-0.1453 0.545,-0.6687 2.817,-2.8735 4.455,-7.4907 4.455,-13.5594 0,-4.96565 -1.065,-10.07659 -4.627,-13.7344 -0.373,-0.348437 -0.373,-0.40625 -0.373,-0.49375 0,-0.175 0.115,-0.290625 0.287,-0.290625 0.288,0 2.873,1.975005 4.569,5.662505 1.464,3.19375 1.809,6.41717 1.809,8.85627" />
        </g>
      </g>
    </g>
  </g>
</svg>
